# xmcd CD database file
#
# Track frame offsets:
#	150
#	13037
#	31652
#	51862
#	74900
#	91705
#	113245
#	134107
#	155762
#	179900
#	208082
#	235757
#	264282
#
# Disc length: 3773 seconds
#
# Revision: 2
# Processed by: cddbd v1.5.1PL2 Copyright (c) Steve Scherf et al.
# Submitted via: CDex 1.50beta10
#
DISCID=be0ebb0d
DTITLE=槇原敬之 - Listen To The Music 2
DYEAR=2005
DGENRE=Misc
TTITLE0=Smile
TTITLE1=Your Song
TTITLE2=野に咲く花のように
TTITLE3=ｔｒａｖｅｌｉｎｇ
TTITLE4=I will be Here
TTITLE5=Forget-me-not
TTITLE6=島育ち〜人の歩く道〜
TTITLE7=Time After Time
TTITLE8=言葉にできない
TTITLE9=ヨイトマケの唄
TTITLE10=ファイト！
TTITLE11=ごはんができたよ
TTITLE12=見上げてごらん夜の星を
EXTD=YEAR: 2005
EXTT0=
EXTT1=
EXTT2=
EXTT3=
EXTT4=
EXTT5=
EXTT6=
EXTT7=
EXTT8=
EXTT9=
EXTT10=
EXTT11=
EXTT12=
PLAYORDER=
